<svg xmlns="http://www.w3.org/2000/svg" viewBox="0 0 298 232" fill="black" stroke="none">
  <path d="M 0 0 L 0 1 L 0 2 L 0 3 L 0 4 L 0 5 L 0 6 L 0 7 L 0 8 L 0 9 L 0 10 L 0 11 L 0 12 L 0 13 L 0 14 L 0 15 L 0 16 L 0 17 L 0 18 L 0 19 L 0 20 L 0 21 L 0 22 L 0 23 L 0 24 L 0 25 L 0 26 L 0 27 L 0 28 L 0 29 L 0 30 L 0 31 L 0 32 L 0 33 L 0 34 L 0 35 L 0 36 L 0 37 L 0 38 L 0 39 L 0 40 L 0 41 L 0 42 L 0 43 L 0 44 L 0 45 L 0 46 L 0 47 L 0 48 L 0 49 L 0 50 L 0 51 L 0 52 L 0 53 L 0 54 L 0 55 L 0 56 L 0 57 L 0 58 L 0 59 L 0 60 L 0 61 L 0 62 L 0 63 L 0 64 L 0 65 L 0 66 L 0 67 L 0 68 L 0 69 L 0 70 L 0 71 L 0 72 L 0 73 L 0 74 L 0 75 L 0 76 L 0 77 L 0 78 L 0 79 L 0 80 L 0 81 L 0 82 L 0 83 L 0 84 L 0 85 L 0 86 L 0 87 L 0 88 L 0 89 L 0 90 L 0 91 L 0 92 L 0 93 L 0 94 L 0 95 L 0 96 L 0 97 L 0 98 L 0 99 L 0 100 L 0 101 L 0 102 L 0 103 L 0 104 L 0 105 L 0 106 L 0 107 L 0 108 L 0 109 L 0 110 L 0 111 L 0 112 L 0 113 L 0 114 L 0 115 L 0 116 L 0 117 L 0 118 L 0 119 L 0 120 L 0 121 L 0 122 L 0 123 L 0 124 L 0 125 L 0 126 L 0 127 L 0 128 L 0 129 L 0 130 L 0 131 L 0 132 L 0 133 L 0 134 L 0 135 L 0 136 L 0 137 L 0 138 L 0 139 L 0 140 L 0 141 L 0 142 L 0 143 L 0 144 L 0 145 L 0 146 L 0 147 L 0 148 L 0 149 L 0 150 L 0 151 L 0 152 L 0 153 L 0 154 L 0 155 L 0 156 L 0 157 L 0 158 L 0 159 L 0 160 L 0 161 L 0 162 L 0 163 L 0 164 L 0 165 L 0 166 L 0 167 L 0 168 L 0 169 L 0 170 L 0 171 L 0 172 L 0 173 L 0 174 L 0 175 L 0 176 L 0 177 L 0 178 L 0 179 L 0 180 L 0 181 L 0 182 L 0 183 L 0 184 L 0 185 L 0 186 L 0 187 L 0 188 L 0 189 L 0 190 L 0 191 L 0 192 L 0 193 L 0 194 L 0 195 L 0 196 L 0 197 L 0 198 L 0 199 L 0 200 L 0 201 L 0 202 L 0 203 L 0 204 L 0 205 L 0 206 L 0 207 L 0 208 L 0 209 L 0 210 L 0 211 L 0 212 L 0 213 L 0 214 L 0 215 L 0 216 L 0 217 L 0 218 L 0 219 L 0 220 L 0 221 L 0 222 L 0 223 L 0 224 L 0 225 L 0 226 L 0 227 L 0 228 L 0 229 L 0 230 L 0 231 L 1 231 L 2 231 L 3 231 L 4 231 L 5 231 L 6 231 L 7 231 L 8 231 L 9 231 L 10 231 L 11 231 L 12 231 L 13 231 L 14 231 L 15 231 L 16 231 L 17 231 L 18 231 L 19 231 L 20 231 L 21 231 L 22 231 L 23 231 L 24 231 L 25 231 L 26 231 L 27 231 L 28 231 L 29 231 L 30 231 L 31 231 L 32 231 L 33 231 L 34 231 L 35 231 L 36 231 L 37 231 L 38 231 L 39 231 L 40 231 L 41 231 L 42 231 L 43 231 L 44 231 L 45 231 L 46 231 L 47 231 L 48 231 L 49 231 L 50 231 L 51 231 L 52 231 L 53 231 L 54 231 L 55 231 L 56 231 L 57 231 L 58 231 L 59 231 L 60 231 L 61 231 L 62 231 L 63 231 L 64 231 L 65 231 L 66 231 L 67 231 L 68 231 L 69 231 L 70 231 L 71 231 L 72 231 L 73 231 L 74 231 L 75 231 L 76 231 L 77 231 L 78 231 L 79 231 L 80 231 L 81 231 L 82 231 L 83 231 L 84 231 L 85 231 L 86 231 L 87 231 L 88 231 L 89 231 L 90 231 L 91 231 L 92 231 L 93 231 L 94 231 L 95 231 L 96 231 L 97 231 L 98 231 L 99 231 L 100 231 L 101 231 L 102 231 L 103 231 L 104 231 L 105 231 L 106 231 L 107 231 L 108 231 L 109 231 L 110 231 L 111 231 L 112 231 L 113 231 L 114 231 L 115 231 L 116 231 L 117 231 L 118 231 L 119 231 L 120 231 L 121 231 L 122 231 L 123 231 L 124 231 L 125 231 L 126 231 L 127 231 L 128 231 L 129 231 L 130 231 L 131 231 L 132 231 L 133 231 L 134 231 L 135 231 L 136 231 L 137 231 L 138 231 L 139 231 L 140 231 L 141 231 L 142 231 L 143 231 L 144 231 L 145 231 L 146 231 L 147 231 L 148 231 L 149 231 L 150 231 L 151 231 L 152 231 L 153 231 L 154 231 L 155 231 L 156 231 L 157 231 L 158 231 L 159 231 L 160 231 L 161 231 L 162 231 L 163 231 L 164 231 L 165 231 L 166 231 L 167 231 L 168 231 L 169 231 L 170 231 L 171 231 L 172 231 L 173 231 L 174 231 L 175 231 L 176 231 L 177 231 L 178 231 L 179 231 L 180 231 L 181 231 L 182 231 L 183 231 L 184 231 L 185 231 L 186 231 L 187 231 L 188 231 L 189 231 L 190 231 L 191 231 L 192 231 L 193 231 L 194 231 L 195 231 L 196 231 L 197 231 L 198 231 L 199 231 L 200 231 L 201 231 L 202 231 L 203 231 L 204 231 L 205 231 L 206 231 L 207 231 L 208 231 L 209 231 L 210 231 L 211 231 L 212 231 L 213 231 L 214 231 L 215 231 L 216 231 L 217 231 L 218 231 L 219 231 L 220 231 L 221 231 L 222 231 L 223 231 L 224 231 L 225 231 L 226 231 L 227 231 L 228 231 L 229 231 L 230 231 L 231 231 L 232 231 L 233 231 L 234 231 L 235 231 L 236 231 L 237 231 L 238 231 L 239 231 L 240 231 L 241 231 L 242 231 L 243 231 L 244 231 L 245 231 L 246 231 L 247 231 L 248 231 L 249 231 L 250 231 L 251 231 L 252 231 L 253 231 L 254 231 L 255 231 L 256 231 L 257 231 L 258 231 L 259 231 L 260 231 L 261 231 L 262 231 L 263 231 L 264 231 L 265 231 L 266 231 L 267 231 L 268 231 L 269 231 L 270 231 L 271 231 L 272 231 L 273 231 L 274 231 L 275 231 L 276 231 L 277 231 L 278 231 L 279 231 L 280 231 L 281 231 L 282 231 L 283 231 L 284 231 L 285 231 L 286 231 L 287 231 L 288 231 L 289 231 L 290 231 L 291 231 L 292 231 L 293 231 L 294 231 L 295 231 L 296 231 L 297 231 L 297 230 L 297 229 L 297 228 L 297 227 L 297 226 L 297 225 L 297 224 L 297 223 L 297 222 L 297 221 L 297 220 L 297 219 L 297 218 L 297 217 L 297 216 L 297 215 L 297 214 L 297 213 L 297 212 L 297 211 L 297 210 L 297 209 L 297 208 L 297 207 L 297 206 L 297 205 L 297 204 L 297 203 L 297 202 L 297 201 L 297 200 L 297 199 L 297 198 L 297 197 L 297 196 L 297 195 L 297 194 L 297 193 L 297 192 L 297 191 L 297 190 L 297 189 L 297 188 L 297 187 L 297 186 L 297 185 L 297 184 L 297 183 L 297 182 L 297 181 L 297 180 L 297 179 L 297 178 L 297 177 L 297 176 L 297 175 L 297 174 L 297 173 L 297 172 L 297 171 L 297 170 L 297 169 L 297 168 L 297 167 L 297 166 L 297 165 L 297 164 L 297 163 L 297 162 L 297 161 L 297 160 L 297 159 L 297 158 L 297 157 L 297 156 L 297 155 L 297 154 L 297 153 L 297 152 L 297 151 L 297 150 L 297 149 L 297 148 L 297 147 L 297 146 L 297 145 L 297 144 L 297 143 L 297 142 L 297 141 L 297 140 L 297 139 L 297 138 L 297 137 L 297 136 L 297 135 L 297 134 L 297 133 L 297 132 L 297 131 L 297 130 L 297 129 L 297 128 L 297 127 L 297 126 L 297 125 L 297 124 L 297 123 L 297 122 L 297 121 L 297 120 L 297 119 L 297 118 L 297 117 L 297 116 L 297 115 L 297 114 L 297 113 L 297 112 L 297 111 L 297 110 L 297 109 L 297 108 L 297 107 L 297 106 L 297 105 L 297 104 L 297 103 L 297 102 L 297 101 L 297 100 L 297 99 L 297 98 L 297 97 L 297 96 L 297 95 L 297 94 L 297 93 L 297 92 L 297 91 L 297 90 L 297 89 L 297 88 L 297 87 L 297 86 L 297 85 L 297 84 L 297 83 L 297 82 L 297 81 L 297 80 L 297 79 L 297 78 L 297 77 L 297 76 L 297 75 L 297 74 L 297 73 L 297 72 L 297 71 L 297 70 L 297 69 L 297 68 L 297 67 L 297 66 L 297 65 L 297 64 L 297 63 L 297 62 L 297 61 L 297 60 L 297 59 L 297 58 L 297 57 L 297 56 L 297 55 L 297 54 L 297 53 L 297 52 L 297 51 L 297 50 L 297 49 L 297 48 L 297 47 L 297 46 L 297 45 L 297 44 L 297 43 L 297 42 L 297 41 L 297 40 L 297 39 L 297 38 L 297 37 L 297 36 L 297 35 L 297 34 L 297 33 L 297 32 L 297 31 L 297 30 L 297 29 L 297 28 L 297 27 L 297 26 L 297 25 L 297 24 L 297 23 L 297 22 L 297 21 L 297 20 L 297 19 L 297 18 L 297 17 L 297 16 L 297 15 L 297 14 L 297 13 L 297 12 L 297 11 L 297 10 L 297 9 L 297 8 L 297 7 L 297 6 L 297 5 L 297 4 L 297 3 L 297 2 L 297 1 L 297 0 L 296 0 L 295 0 L 294 0 L 293 0 L 292 0 L 291 0 L 290 0 L 289 0 L 288 0 L 287 0 L 286 0 L 285 0 L 284 0 L 283 0 L 282 0 L 281 0 L 280 0 L 279 0 L 278 0 L 277 0 L 276 0 L 275 0 L 274 0 L 273 0 L 272 0 L 271 0 L 270 0 L 269 0 L 268 0 L 267 0 L 266 0 L 265 0 L 264 0 L 263 0 L 262 0 L 261 0 L 260 0 L 259 0 L 258 0 L 257 0 L 256 0 L 255 0 L 254 0 L 253 0 L 252 0 L 251 0 L 250 0 L 249 0 L 248 0 L 247 0 L 246 0 L 245 0 L 244 0 L 243 0 L 242 0 L 241 0 L 240 0 L 239 0 L 238 0 L 237 0 L 236 0 L 235 0 L 234 0 L 233 0 L 232 0 L 231 0 L 230 0 L 229 0 L 228 0 L 227 0 L 226 0 L 225 0 L 224 0 L 223 0 L 222 0 L 221 0 L 220 0 L 219 0 L 218 0 L 217 0 L 216 0 L 215 0 L 214 0 L 213 0 L 212 0 L 211 0 L 210 0 L 209 0 L 208 0 L 207 0 L 206 0 L 205 0 L 204 0 L 203 0 L 202 0 L 201 0 L 200 0 L 199 0 L 198 0 L 197 0 L 196 0 L 195 0 L 194 0 L 193 0 L 192 0 L 191 0 L 190 0 L 189 0 L 188 0 L 187 0 L 186 0 L 185 0 L 184 0 L 183 0 L 182 0 L 181 0 L 180 0 L 179 0 L 178 0 L 177 0 L 176 0 L 175 0 L 174 0 L 173 0 L 172 0 L 171 0 L 170 0 L 169 0 L 168 0 L 167 0 L 166 0 L 165 0 L 164 0 L 163 0 L 162 0 L 161 0 L 160 0 L 159 0 L 158 0 L 157 0 L 156 0 L 155 0 L 154 0 L 153 0 L 152 0 L 151 0 L 150 0 L 149 0 L 148 0 L 147 0 L 146 0 L 145 0 L 144 0 L 143 0 L 142 0 L 141 0 L 140 0 L 139 0 L 138 0 L 137 0 L 136 0 L 135 0 L 134 0 L 133 0 L 132 0 L 131 0 L 130 0 L 129 0 L 128 0 L 127 0 L 126 0 L 125 0 L 124 0 L 123 0 L 122 0 L 121 0 L 120 0 L 119 0 L 118 0 L 117 0 L 116 0 L 115 0 L 114 0 L 113 0 L 112 0 L 111 0 L 110 0 L 109 0 L 108 0 L 107 0 L 106 0 L 105 0 L 104 0 L 103 0 L 102 0 L 101 0 L 100 0 L 99 0 L 98 0 L 97 0 L 96 0 L 95 0 L 94 0 L 93 0 L 92 0 L 91 0 L 90 0 L 89 0 L 88 0 L 87 0 L 86 0 L 85 0 L 84 0 L 83 0 L 82 0 L 81 0 L 80 0 L 79 0 L 78 0 L 77 0 L 76 0 L 75 0 L 74 0 L 73 0 L 72 0 L 71 0 L 70 0 L 69 0 L 68 0 L 67 0 L 66 0 L 65 0 L 64 0 L 63 0 L 62 0 L 61 0 L 60 0 L 59 0 L 58 0 L 57 0 L 56 0 L 55 0 L 54 0 L 53 0 L 52 0 L 51 0 L 50 0 L 49 0 L 48 0 L 47 0 L 46 0 L 45 0 L 44 0 L 43 0 L 42 0 L 41 0 L 40 0 L 39 0 L 38 0 L 37 0 L 36 0 L 35 0 L 34 0 L 33 0 L 32 0 L 31 0 L 30 0 L 29 0 L 28 0 L 27 0 L 26 0 L 25 0 L 24 0 L 23 0 L 22 0 L 21 0 L 20 0 L 19 0 L 18 0 L 17 0 L 16 0 L 15 0 L 14 0 L 13 0 L 12 0 L 11 0 L 10 0 L 9 0 L 8 0 L 7 0 L 6 0 L 5 0 L 4 0 L 3 0 L 2 0 L 1 0 Z" />
</svg>