<svg xmlns="http://www.w3.org/2000/svg" viewBox="0 0 298 232" fill="black" stroke="none">
  <path d="M 113 141 L 113 142 L 112 143 L 108 143 L 107 144 L 106 144 L 105 145 L 105 148 L 104 149 L 103 149 L 102 150 L 100 150 L 98 152 L 98 154 L 93 159 L 92 159 L 87 164 L 86 164 L 81 169 L 80 169 L 75 174 L 74 174 L 70 178 L 69 178 L 64 183 L 64 185 L 65 186 L 65 187 L 70 192 L 72 192 L 73 191 L 74 191 L 77 188 L 81 192 L 82 192 L 84 190 L 85 190 L 87 188 L 89 188 L 91 190 L 87 194 L 86 194 L 85 195 L 86 196 L 85 197 L 88 200 L 88 201 L 92 201 L 94 199 L 94 197 L 92 197 L 91 198 L 90 197 L 90 198 L 91 198 L 92 197 L 93 197 L 94 198 L 91 201 L 89 201 L 88 200 L 88 199 L 86 197 L 86 195 L 87 194 L 88 194 L 91 191 L 91 189 L 90 188 L 86 188 L 84 190 L 83 189 L 83 187 L 80 187 L 82 187 L 83 188 L 83 189 L 84 190 L 83 191 L 81 191 L 78 188 L 76 188 L 73 191 L 72 191 L 71 192 L 64 185 L 64 184 L 70 178 L 71 178 L 75 174 L 76 174 L 81 169 L 82 169 L 87 164 L 88 164 L 92 160 L 94 162 L 88 168 L 87 168 L 87 169 L 78 178 L 78 179 L 77 180 L 76 180 L 75 179 L 75 178 L 76 177 L 75 178 L 75 179 L 71 183 L 70 183 L 68 185 L 68 186 L 71 189 L 72 189 L 89 172 L 90 172 L 95 167 L 96 167 L 100 163 L 100 161 L 99 160 L 96 160 L 94 162 L 92 160 L 93 159 L 94 159 L 98 155 L 101 155 L 106 160 L 106 162 L 105 163 L 104 163 L 99 168 L 99 171 L 102 174 L 101 175 L 100 175 L 98 173 L 96 173 L 96 175 L 97 176 L 97 177 L 98 178 L 96 180 L 96 181 L 97 182 L 97 183 L 98 184 L 100 184 L 101 183 L 101 181 L 104 178 L 105 178 L 107 180 L 108 180 L 111 183 L 111 184 L 107 188 L 106 188 L 105 189 L 105 190 L 109 186 L 110 186 L 111 185 L 111 182 L 110 182 L 109 181 L 109 180 L 108 180 L 106 178 L 103 178 L 101 180 L 101 183 L 100 184 L 99 184 L 96 181 L 98 179 L 98 177 L 97 176 L 97 175 L 96 174 L 97 173 L 98 173 L 100 175 L 102 175 L 102 173 L 99 170 L 99 169 L 105 163 L 106 163 L 106 159 L 102 155 L 102 154 L 104 152 L 105 152 L 107 154 L 107 155 L 109 157 L 109 160 L 108 161 L 109 160 L 110 160 L 111 161 L 109 163 L 108 163 L 109 163 L 111 161 L 111 159 L 112 158 L 114 158 L 115 157 L 117 157 L 117 155 L 118 154 L 118 152 L 120 150 L 121 150 L 121 149 L 117 145 L 117 144 L 115 142 L 114 142 Z" />
  <path d="M 147 127 L 145 129 L 144 129 L 138 135 L 137 135 L 130 142 L 129 142 L 125 146 L 124 146 L 123 147 L 122 147 L 119 144 L 119 143 L 117 141 L 117 140 L 122 135 L 123 135 L 125 133 L 125 132 L 126 131 L 127 132 L 127 133 L 127 132 L 126 131 L 122 135 L 121 135 L 117 139 L 117 141 L 119 143 L 119 144 L 122 147 L 124 147 L 126 145 L 127 145 L 132 140 L 133 140 L 138 135 L 139 135 L 145 129 L 146 129 L 148 127 L 149 127 L 153 131 L 154 131 L 159 136 L 160 136 L 167 143 L 168 143 L 173 148 L 174 148 L 176 150 L 175 149 L 176 148 L 177 148 L 179 146 L 180 147 L 180 148 L 178 150 L 178 152 L 180 154 L 180 157 L 181 158 L 181 159 L 183 159 L 184 160 L 186 160 L 187 161 L 187 163 L 188 164 L 188 165 L 191 165 L 192 164 L 200 172 L 196 176 L 196 178 L 198 178 L 201 175 L 202 176 L 202 177 L 200 179 L 200 183 L 201 183 L 202 184 L 198 188 L 196 186 L 196 183 L 194 181 L 192 181 L 190 183 L 189 183 L 186 186 L 186 189 L 188 191 L 189 191 L 192 194 L 194 194 L 194 192 L 191 189 L 190 189 L 189 188 L 191 186 L 194 189 L 195 189 L 197 191 L 200 191 L 203 188 L 203 187 L 210 180 L 211 180 L 213 182 L 208 187 L 208 188 L 202 194 L 203 195 L 202 196 L 203 197 L 204 197 L 206 199 L 207 199 L 208 200 L 208 201 L 207 202 L 206 202 L 205 201 L 203 201 L 203 203 L 206 206 L 208 206 L 212 202 L 212 199 L 207 194 L 210 191 L 212 193 L 214 193 L 215 194 L 215 195 L 216 196 L 217 195 L 218 195 L 222 191 L 226 195 L 228 195 L 230 193 L 230 192 L 233 189 L 233 188 L 235 186 L 235 184 L 233 182 L 232 182 L 227 177 L 226 177 L 221 172 L 220 172 L 214 166 L 213 166 L 208 161 L 207 161 L 201 155 L 201 153 L 200 152 L 200 151 L 197 151 L 196 150 L 195 150 L 194 149 L 194 145 L 193 144 L 188 144 L 186 142 L 186 143 L 187 144 L 192 144 L 194 146 L 194 150 L 193 151 L 192 150 L 190 150 L 189 149 L 188 149 L 187 148 L 187 147 L 188 146 L 187 146 L 187 147 L 185 149 L 185 150 L 183 152 L 183 154 L 182 155 L 184 157 L 187 157 L 194 150 L 196 150 L 198 152 L 196 154 L 195 153 L 194 153 L 187 160 L 184 160 L 183 159 L 182 159 L 180 157 L 180 153 L 178 151 L 178 150 L 180 148 L 181 149 L 181 150 L 181 149 L 180 148 L 183 145 L 183 144 L 184 143 L 180 147 L 179 146 L 179 145 L 182 142 L 181 142 L 180 143 L 180 144 L 179 145 L 179 146 L 177 148 L 174 148 L 171 145 L 170 145 L 161 136 L 160 136 L 155 131 L 154 131 L 150 127 Z" />
  <path d="M 136 99 L 135 100 L 134 100 L 127 107 L 127 109 L 130 112 L 130 114 L 131 115 L 131 118 L 132 119 L 141 119 L 141 117 L 144 114 L 144 113 L 144 114 L 143 115 L 141 113 L 141 112 L 142 111 L 143 111 L 144 110 L 144 105 L 142 103 L 142 102 L 143 101 L 146 104 L 146 105 L 147 106 L 147 110 L 146 111 L 146 113 L 146 112 L 147 111 L 148 111 L 147 110 L 149 108 L 151 108 L 151 107 L 152 106 L 152 105 L 153 104 L 154 104 L 155 105 L 155 106 L 154 107 L 154 110 L 155 111 L 154 110 L 154 107 L 155 106 L 155 105 L 156 104 L 158 104 L 159 105 L 159 106 L 161 106 L 165 110 L 165 111 L 163 113 L 161 113 L 159 111 L 158 111 L 157 112 L 157 115 L 156 116 L 154 114 L 154 113 L 151 110 L 151 111 L 150 112 L 150 113 L 153 116 L 153 118 L 155 118 L 156 117 L 158 119 L 158 120 L 157 121 L 155 121 L 154 120 L 153 120 L 153 121 L 152 122 L 151 121 L 151 120 L 150 119 L 149 120 L 149 122 L 146 125 L 145 125 L 142 128 L 141 128 L 135 134 L 134 134 L 126 142 L 125 142 L 123 144 L 121 142 L 121 141 L 123 139 L 124 139 L 126 137 L 127 137 L 129 135 L 130 135 L 138 127 L 139 127 L 143 123 L 144 123 L 147 120 L 146 121 L 145 121 L 141 125 L 140 125 L 134 131 L 133 131 L 132 130 L 136 126 L 132 130 L 133 131 L 129 135 L 128 135 L 125 138 L 124 138 L 123 139 L 122 139 L 121 140 L 121 143 L 122 144 L 124 144 L 128 140 L 129 140 L 136 133 L 137 133 L 143 127 L 144 127 L 146 125 L 147 125 L 149 123 L 149 121 L 150 120 L 152 122 L 152 123 L 151 124 L 151 125 L 155 129 L 156 129 L 158 131 L 159 131 L 160 132 L 160 133 L 161 134 L 162 134 L 171 143 L 172 143 L 175 146 L 176 146 L 177 145 L 177 144 L 178 143 L 177 142 L 177 141 L 175 139 L 174 139 L 173 138 L 172 138 L 166 132 L 167 131 L 168 131 L 169 132 L 169 131 L 170 130 L 171 130 L 181 140 L 185 140 L 182 140 L 174 132 L 173 132 L 170 129 L 169 129 L 168 128 L 168 127 L 167 127 L 163 123 L 162 123 L 160 121 L 160 122 L 161 123 L 162 123 L 165 126 L 166 126 L 168 128 L 166 130 L 161 125 L 167 131 L 166 132 L 165 132 L 159 126 L 158 126 L 156 124 L 156 123 L 155 122 L 156 121 L 158 121 L 158 120 L 159 119 L 162 119 L 163 118 L 165 118 L 166 117 L 166 115 L 167 114 L 167 112 L 170 109 L 170 107 L 163 100 L 161 100 L 161 101 L 160 102 L 158 102 L 160 102 L 161 103 L 160 104 L 156 104 L 155 105 L 154 104 L 153 104 L 152 105 L 152 106 L 150 108 L 149 108 L 148 109 L 147 108 L 147 106 L 146 105 L 146 103 L 145 102 L 144 102 L 143 101 L 142 102 L 142 104 L 143 104 L 144 105 L 144 109 L 142 111 L 139 111 L 137 113 L 135 113 L 134 114 L 133 113 L 133 112 L 132 111 L 132 110 L 137 105 L 139 105 L 139 104 L 140 103 L 140 101 L 138 101 L 137 100 L 137 99 Z" />
  <path d="M 198 89 L 197 90 L 196 90 L 197 90 L 198 89 L 202 93 L 202 94 L 201 95 L 198 92 L 198 93 L 197 94 L 194 91 L 192 93 L 191 93 L 190 94 L 189 94 L 187 96 L 187 97 L 186 98 L 186 102 L 190 106 L 192 106 L 193 107 L 196 107 L 197 106 L 198 106 L 199 107 L 200 107 L 199 106 L 203 102 L 203 101 L 205 99 L 206 100 L 206 102 L 204 104 L 206 102 L 206 100 L 205 99 L 205 98 L 204 97 L 204 95 L 202 93 L 202 92 L 200 90 L 199 90 Z" />
  <path d="M 118 31 L 119 31 L 120 32 L 120 33 L 119 34 L 118 33 L 117 33 L 118 33 L 119 34 L 119 40 L 120 41 L 120 42 L 121 43 L 121 44 L 120 45 L 120 52 L 119 53 L 119 54 L 118 55 L 118 57 L 116 59 L 116 60 L 114 62 L 114 63 L 109 68 L 108 68 L 107 69 L 105 69 L 104 70 L 103 70 L 102 69 L 99 69 L 94 64 L 93 64 L 92 63 L 93 64 L 94 64 L 95 65 L 95 66 L 97 68 L 98 68 L 99 69 L 102 69 L 103 70 L 104 70 L 105 69 L 108 69 L 109 68 L 110 68 L 114 64 L 114 63 L 116 61 L 116 60 L 118 58 L 118 55 L 119 54 L 119 53 L 120 52 L 120 45 L 121 44 L 121 43 L 122 42 L 122 40 L 122 42 L 121 43 L 120 42 L 120 41 L 119 40 L 119 34 L 120 33 L 121 34 L 121 35 L 122 34 L 123 35 L 123 36 L 124 37 L 124 48 L 123 49 L 123 53 L 122 54 L 122 56 L 121 57 L 121 60 L 126 60 L 130 64 L 129 65 L 128 65 L 129 66 L 129 67 L 130 68 L 130 69 L 131 70 L 131 77 L 126 82 L 126 83 L 125 84 L 124 83 L 123 83 L 124 83 L 125 84 L 124 85 L 122 85 L 119 82 L 120 81 L 122 81 L 123 80 L 124 80 L 125 79 L 125 78 L 126 77 L 126 71 L 124 69 L 123 69 L 122 68 L 119 68 L 118 69 L 119 68 L 122 68 L 126 72 L 126 76 L 125 77 L 123 75 L 123 72 L 122 71 L 118 71 L 117 72 L 117 73 L 115 75 L 114 74 L 114 73 L 115 72 L 114 73 L 114 74 L 115 75 L 119 71 L 121 71 L 123 73 L 123 74 L 121 76 L 117 76 L 115 78 L 114 77 L 113 77 L 112 76 L 112 75 L 111 74 L 111 73 L 118 66 L 119 66 L 120 65 L 124 65 L 127 68 L 127 67 L 125 65 L 122 65 L 121 64 L 123 62 L 125 62 L 126 63 L 125 62 L 123 62 L 122 63 L 121 63 L 118 66 L 117 66 L 111 72 L 111 74 L 112 75 L 112 76 L 113 77 L 114 77 L 115 78 L 115 79 L 116 80 L 116 81 L 117 82 L 118 82 L 121 85 L 124 85 L 130 79 L 130 78 L 131 77 L 131 70 L 130 69 L 130 68 L 129 67 L 129 65 L 130 64 L 132 66 L 132 67 L 133 68 L 133 78 L 132 79 L 132 80 L 131 81 L 131 82 L 126 87 L 125 87 L 124 88 L 122 88 L 121 87 L 119 87 L 118 86 L 117 86 L 114 83 L 114 82 L 113 81 L 113 80 L 109 76 L 109 74 L 108 74 L 107 73 L 103 73 L 102 74 L 98 74 L 97 75 L 97 81 L 99 83 L 99 85 L 100 85 L 101 86 L 104 86 L 105 87 L 106 87 L 108 89 L 109 89 L 110 90 L 111 90 L 112 91 L 112 92 L 113 93 L 113 94 L 115 96 L 114 97 L 114 100 L 113 101 L 113 102 L 112 103 L 112 104 L 108 108 L 107 108 L 106 109 L 105 109 L 104 110 L 101 110 L 100 111 L 97 111 L 96 110 L 94 110 L 93 109 L 92 109 L 87 104 L 87 103 L 88 102 L 91 105 L 89 103 L 89 101 L 88 102 L 86 100 L 84 100 L 82 102 L 81 102 L 80 103 L 78 103 L 77 104 L 75 104 L 74 105 L 68 105 L 67 106 L 65 106 L 64 105 L 57 105 L 56 104 L 55 104 L 53 102 L 54 101 L 52 101 L 50 99 L 49 99 L 46 96 L 45 96 L 44 95 L 46 97 L 47 97 L 54 104 L 56 104 L 57 105 L 64 105 L 65 106 L 67 106 L 68 105 L 74 105 L 75 104 L 77 104 L 78 103 L 80 103 L 81 102 L 82 102 L 83 101 L 84 101 L 85 100 L 86 100 L 87 101 L 87 105 L 91 109 L 92 109 L 93 110 L 96 110 L 97 111 L 100 111 L 101 110 L 104 110 L 105 109 L 107 109 L 108 108 L 109 108 L 112 105 L 112 104 L 113 103 L 113 101 L 115 99 L 116 99 L 118 101 L 119 101 L 123 105 L 126 105 L 126 103 L 125 103 L 121 99 L 120 99 L 118 97 L 117 97 L 113 93 L 113 92 L 112 91 L 112 90 L 111 90 L 110 89 L 109 89 L 108 88 L 107 88 L 105 86 L 102 86 L 101 85 L 100 85 L 99 84 L 99 82 L 97 80 L 97 76 L 99 74 L 101 74 L 102 75 L 102 76 L 103 77 L 104 77 L 106 79 L 107 79 L 108 80 L 108 81 L 109 82 L 109 83 L 110 83 L 121 94 L 122 94 L 124 96 L 125 96 L 128 99 L 132 99 L 129 99 L 126 96 L 125 96 L 123 94 L 121 94 L 120 93 L 120 92 L 117 89 L 116 89 L 112 85 L 112 84 L 111 83 L 110 83 L 109 82 L 109 81 L 108 80 L 108 79 L 107 79 L 105 77 L 104 77 L 102 75 L 102 74 L 103 73 L 107 73 L 109 75 L 109 76 L 111 78 L 111 79 L 113 81 L 113 82 L 114 83 L 114 84 L 116 86 L 118 86 L 119 87 L 120 87 L 121 88 L 122 88 L 123 89 L 123 90 L 129 96 L 130 96 L 131 97 L 132 97 L 131 96 L 130 96 L 123 89 L 125 87 L 127 87 L 131 83 L 131 82 L 132 81 L 132 79 L 133 78 L 133 68 L 132 67 L 132 65 L 128 61 L 127 61 L 126 60 L 122 60 L 121 59 L 121 57 L 122 56 L 122 54 L 123 53 L 123 49 L 124 48 L 124 37 L 123 36 L 123 35 L 119 31 Z" />
  <path d="M 200 17 L 199 18 L 195 18 L 194 19 L 193 19 L 192 20 L 191 20 L 188 23 L 187 23 L 183 27 L 183 28 L 181 30 L 181 31 L 180 32 L 180 33 L 179 34 L 179 36 L 178 37 L 178 38 L 177 39 L 177 43 L 176 44 L 176 55 L 177 56 L 177 60 L 178 61 L 178 63 L 177 64 L 176 63 L 175 64 L 172 64 L 171 65 L 170 65 L 169 66 L 169 67 L 167 69 L 167 71 L 166 72 L 166 82 L 167 83 L 167 84 L 168 85 L 168 86 L 170 88 L 172 88 L 173 89 L 178 89 L 179 88 L 180 88 L 181 87 L 182 87 L 182 86 L 184 84 L 184 83 L 186 81 L 185 80 L 185 79 L 186 78 L 186 76 L 187 75 L 187 74 L 182 69 L 181 69 L 180 68 L 179 68 L 178 67 L 178 66 L 176 66 L 177 66 L 178 67 L 177 68 L 176 68 L 175 69 L 173 69 L 173 70 L 172 71 L 174 69 L 175 69 L 176 68 L 179 68 L 180 69 L 181 69 L 187 75 L 185 77 L 184 76 L 186 78 L 185 79 L 182 79 L 181 78 L 177 78 L 175 76 L 178 73 L 179 73 L 182 76 L 181 75 L 181 74 L 180 74 L 179 73 L 177 73 L 176 74 L 176 75 L 175 76 L 176 77 L 176 78 L 175 79 L 176 78 L 181 78 L 183 80 L 182 81 L 182 82 L 181 83 L 180 82 L 179 82 L 180 82 L 181 83 L 180 84 L 178 84 L 176 82 L 175 82 L 173 80 L 173 78 L 172 77 L 172 76 L 173 75 L 173 74 L 176 71 L 180 71 L 181 72 L 180 71 L 176 71 L 175 72 L 174 72 L 173 73 L 173 75 L 172 76 L 172 78 L 173 79 L 173 81 L 174 82 L 175 82 L 176 83 L 177 83 L 178 84 L 177 85 L 177 86 L 176 87 L 174 87 L 176 87 L 179 84 L 181 84 L 181 83 L 182 82 L 182 81 L 184 79 L 185 80 L 185 81 L 184 82 L 184 83 L 183 84 L 183 85 L 181 87 L 180 87 L 179 88 L 178 88 L 177 89 L 173 89 L 172 88 L 171 88 L 168 85 L 168 84 L 166 82 L 166 72 L 167 71 L 167 70 L 169 68 L 169 67 L 171 65 L 172 65 L 173 66 L 174 66 L 173 66 L 172 65 L 173 64 L 175 64 L 176 63 L 177 64 L 178 63 L 178 61 L 177 60 L 177 56 L 176 55 L 176 44 L 177 43 L 177 39 L 178 38 L 178 37 L 179 36 L 179 35 L 180 34 L 180 33 L 181 32 L 182 33 L 182 35 L 181 36 L 181 37 L 180 38 L 180 39 L 179 40 L 179 42 L 179 40 L 180 39 L 180 38 L 181 37 L 181 36 L 182 35 L 182 34 L 184 32 L 184 31 L 186 29 L 187 29 L 188 28 L 189 28 L 191 26 L 192 26 L 194 24 L 195 24 L 196 23 L 197 23 L 198 22 L 209 22 L 210 23 L 211 23 L 212 24 L 213 24 L 215 26 L 216 26 L 219 29 L 219 30 L 220 31 L 220 32 L 221 33 L 221 37 L 222 38 L 222 40 L 223 41 L 223 40 L 222 39 L 222 38 L 221 37 L 221 33 L 220 32 L 220 30 L 219 29 L 219 27 L 220 26 L 221 26 L 222 25 L 222 23 L 223 22 L 224 22 L 225 21 L 226 21 L 227 20 L 230 20 L 231 21 L 232 21 L 231 20 L 226 20 L 225 21 L 224 21 L 223 22 L 221 20 L 217 20 L 215 22 L 213 22 L 212 21 L 210 21 L 209 20 L 199 20 L 209 20 L 210 21 L 209 22 L 198 22 L 197 21 L 196 21 L 197 21 L 198 22 L 197 23 L 196 23 L 195 24 L 194 24 L 193 25 L 192 25 L 191 26 L 190 26 L 188 28 L 187 28 L 185 30 L 183 28 L 188 23 L 189 23 L 192 20 L 193 20 L 194 19 L 195 19 L 196 18 L 200 18 L 201 17 L 205 17 L 206 18 L 207 18 L 206 18 L 205 17 Z" />
  <path d="M 251 13 L 249 15 L 249 16 L 248 17 L 248 19 L 247 20 L 247 24 L 246 25 L 245 24 L 236 24 L 235 23 L 232 23 L 235 23 L 236 24 L 245 24 L 246 25 L 247 25 L 248 26 L 249 26 L 250 27 L 249 26 L 248 26 L 247 25 L 247 20 L 248 19 L 249 20 L 249 21 L 249 20 L 250 19 L 252 21 L 252 22 L 251 23 L 251 24 L 252 25 L 252 29 L 254 31 L 254 32 L 255 32 L 256 33 L 254 35 L 252 33 L 252 32 L 249 29 L 248 29 L 247 28 L 246 28 L 245 27 L 244 27 L 243 26 L 240 26 L 237 29 L 237 30 L 236 31 L 236 32 L 237 33 L 237 43 L 236 44 L 237 43 L 238 44 L 238 45 L 237 46 L 235 46 L 237 46 L 238 45 L 241 45 L 242 46 L 244 46 L 245 47 L 249 47 L 250 46 L 251 46 L 252 45 L 253 45 L 253 44 L 254 43 L 254 42 L 255 41 L 255 37 L 256 36 L 257 36 L 258 37 L 258 40 L 257 41 L 257 42 L 256 43 L 257 42 L 258 43 L 258 44 L 256 46 L 255 46 L 255 48 L 254 49 L 252 49 L 251 50 L 248 50 L 247 49 L 244 49 L 243 48 L 237 48 L 236 49 L 235 48 L 234 48 L 232 46 L 232 45 L 235 42 L 235 39 L 234 38 L 234 30 L 235 29 L 235 28 L 236 27 L 236 26 L 235 26 L 234 25 L 226 25 L 225 26 L 224 25 L 224 24 L 224 25 L 225 26 L 224 27 L 223 27 L 223 29 L 222 30 L 223 29 L 223 28 L 224 27 L 225 27 L 227 25 L 234 25 L 236 27 L 234 29 L 234 38 L 235 39 L 235 42 L 234 43 L 233 43 L 233 44 L 232 45 L 232 46 L 233 47 L 233 48 L 234 48 L 235 49 L 237 49 L 238 48 L 243 48 L 244 49 L 247 49 L 248 50 L 251 50 L 252 49 L 254 49 L 256 51 L 256 54 L 254 56 L 254 57 L 253 58 L 253 59 L 251 61 L 250 61 L 249 60 L 248 60 L 247 59 L 246 60 L 245 60 L 246 60 L 247 59 L 249 61 L 247 63 L 246 62 L 244 62 L 243 61 L 240 61 L 239 60 L 237 60 L 239 60 L 240 61 L 243 61 L 244 62 L 245 62 L 246 63 L 247 63 L 251 67 L 251 68 L 252 69 L 252 70 L 253 71 L 253 72 L 254 73 L 254 83 L 251 86 L 251 87 L 250 88 L 250 91 L 252 93 L 247 98 L 246 98 L 245 97 L 247 95 L 245 97 L 246 98 L 244 100 L 243 100 L 242 101 L 241 101 L 240 102 L 237 102 L 236 103 L 233 103 L 232 104 L 221 104 L 220 103 L 217 103 L 216 102 L 215 102 L 214 101 L 212 101 L 210 99 L 212 101 L 214 101 L 215 102 L 216 102 L 217 103 L 220 103 L 221 104 L 232 104 L 233 103 L 236 103 L 237 102 L 240 102 L 241 101 L 243 101 L 244 100 L 245 100 L 247 98 L 248 98 L 254 92 L 254 91 L 255 90 L 255 89 L 256 88 L 256 84 L 257 83 L 257 82 L 256 81 L 256 80 L 257 79 L 257 75 L 256 74 L 256 72 L 255 71 L 255 67 L 254 66 L 254 65 L 253 64 L 254 63 L 255 63 L 256 64 L 254 62 L 255 61 L 255 59 L 257 57 L 258 57 L 259 58 L 259 59 L 257 61 L 257 62 L 258 63 L 258 65 L 258 63 L 257 62 L 259 60 L 259 59 L 260 58 L 260 50 L 260 51 L 259 52 L 258 51 L 258 48 L 259 47 L 258 46 L 258 42 L 257 41 L 258 40 L 258 39 L 259 38 L 261 38 L 262 39 L 263 39 L 262 39 L 261 38 L 259 38 L 257 36 L 256 36 L 255 37 L 254 36 L 254 35 L 256 33 L 257 33 L 258 34 L 260 34 L 261 35 L 260 36 L 262 34 L 263 34 L 265 36 L 264 37 L 265 38 L 267 38 L 268 37 L 269 37 L 272 34 L 272 28 L 271 27 L 271 26 L 270 25 L 270 24 L 268 22 L 265 22 L 264 21 L 264 17 L 260 13 Z" />
  <path d="M 93 11 L 92 12 L 92 13 L 90 15 L 88 15 L 87 16 L 86 16 L 87 16 L 88 15 L 90 15 L 91 16 L 90 17 L 89 17 L 88 18 L 86 18 L 85 19 L 84 19 L 83 18 L 84 17 L 82 15 L 80 15 L 81 15 L 83 17 L 83 18 L 84 19 L 78 25 L 78 26 L 77 27 L 75 25 L 75 22 L 74 22 L 73 21 L 74 20 L 74 18 L 75 17 L 76 18 L 76 20 L 77 21 L 79 21 L 79 20 L 81 18 L 80 17 L 78 17 L 77 16 L 78 15 L 77 15 L 75 17 L 74 16 L 73 16 L 72 15 L 67 15 L 66 16 L 65 15 L 66 16 L 67 15 L 71 15 L 72 16 L 71 17 L 70 17 L 69 18 L 63 18 L 62 19 L 61 19 L 63 19 L 64 20 L 63 21 L 62 21 L 61 22 L 61 23 L 62 24 L 62 25 L 63 26 L 63 32 L 62 33 L 62 37 L 61 38 L 61 39 L 64 42 L 64 44 L 63 45 L 62 45 L 61 46 L 59 46 L 58 45 L 54 45 L 53 46 L 52 46 L 51 47 L 48 47 L 47 48 L 43 48 L 42 47 L 39 47 L 38 46 L 37 46 L 36 45 L 37 44 L 37 43 L 36 44 L 36 46 L 37 47 L 37 50 L 37 47 L 38 46 L 39 47 L 39 54 L 40 55 L 40 57 L 39 58 L 38 57 L 38 56 L 37 55 L 37 52 L 37 55 L 36 56 L 37 55 L 38 56 L 38 57 L 39 58 L 39 60 L 39 58 L 40 57 L 41 58 L 41 59 L 43 61 L 43 62 L 44 61 L 45 61 L 45 60 L 47 58 L 52 58 L 53 59 L 52 60 L 51 60 L 50 61 L 48 61 L 46 63 L 45 63 L 43 65 L 43 66 L 41 68 L 41 70 L 40 71 L 40 72 L 39 73 L 38 72 L 38 68 L 39 67 L 39 66 L 41 64 L 41 62 L 39 62 L 40 62 L 41 63 L 40 64 L 40 65 L 38 67 L 37 66 L 37 64 L 36 63 L 37 62 L 37 60 L 34 57 L 34 51 L 35 50 L 34 49 L 34 48 L 34 57 L 35 58 L 35 59 L 37 61 L 36 62 L 36 64 L 35 65 L 35 67 L 36 68 L 37 68 L 38 69 L 38 72 L 37 73 L 37 75 L 35 77 L 35 79 L 35 77 L 36 76 L 37 77 L 37 82 L 35 84 L 36 85 L 36 87 L 37 87 L 36 86 L 37 85 L 36 85 L 35 84 L 37 82 L 37 77 L 36 76 L 37 75 L 37 73 L 38 72 L 39 73 L 39 83 L 39 73 L 40 72 L 40 71 L 41 70 L 41 69 L 43 67 L 43 66 L 46 63 L 47 63 L 49 61 L 50 61 L 51 60 L 53 60 L 54 59 L 57 59 L 58 58 L 57 57 L 54 57 L 57 57 L 58 58 L 57 59 L 53 59 L 52 58 L 46 58 L 45 59 L 45 60 L 44 61 L 41 58 L 41 57 L 40 56 L 40 55 L 39 54 L 39 48 L 40 47 L 42 47 L 43 48 L 47 48 L 48 47 L 51 47 L 52 46 L 53 46 L 54 45 L 57 45 L 58 46 L 61 46 L 62 45 L 64 45 L 64 41 L 63 40 L 62 40 L 61 39 L 61 38 L 62 37 L 62 33 L 63 32 L 63 26 L 62 25 L 62 24 L 61 23 L 64 20 L 70 20 L 71 21 L 72 21 L 73 22 L 74 22 L 75 23 L 75 29 L 75 27 L 76 26 L 77 27 L 77 30 L 76 31 L 76 33 L 75 34 L 74 33 L 74 32 L 74 33 L 75 34 L 75 36 L 74 37 L 74 38 L 73 39 L 73 41 L 74 42 L 75 41 L 77 43 L 77 45 L 79 47 L 80 47 L 81 48 L 83 48 L 84 49 L 85 49 L 86 50 L 88 50 L 91 47 L 91 45 L 92 44 L 92 42 L 89 42 L 87 40 L 86 40 L 85 39 L 85 33 L 88 30 L 89 30 L 90 31 L 87 34 L 87 38 L 87 34 L 90 31 L 91 31 L 92 32 L 93 32 L 95 34 L 95 38 L 93 40 L 90 40 L 94 40 L 95 41 L 94 42 L 95 43 L 95 41 L 94 40 L 95 39 L 95 34 L 93 32 L 92 32 L 91 31 L 90 31 L 89 30 L 90 29 L 92 29 L 93 30 L 94 30 L 97 33 L 97 39 L 98 40 L 98 41 L 97 42 L 97 44 L 96 45 L 96 46 L 90 52 L 89 52 L 88 53 L 81 53 L 80 52 L 79 52 L 77 50 L 77 49 L 76 49 L 73 46 L 73 45 L 72 44 L 72 43 L 71 42 L 71 32 L 72 31 L 72 30 L 73 29 L 73 27 L 73 28 L 72 29 L 72 31 L 71 32 L 71 42 L 72 43 L 72 44 L 73 45 L 73 47 L 78 52 L 80 52 L 81 53 L 88 53 L 89 52 L 91 52 L 96 47 L 96 46 L 97 45 L 97 42 L 98 41 L 98 40 L 97 39 L 97 32 L 95 30 L 93 30 L 92 29 L 90 29 L 89 30 L 87 30 L 86 31 L 86 32 L 85 33 L 85 39 L 88 42 L 91 42 L 92 43 L 92 44 L 91 45 L 91 46 L 87 50 L 86 50 L 85 49 L 84 49 L 83 48 L 82 48 L 81 47 L 80 47 L 77 44 L 77 43 L 76 42 L 76 39 L 76 40 L 74 42 L 73 41 L 73 39 L 75 37 L 75 35 L 76 34 L 76 31 L 77 30 L 77 28 L 78 27 L 78 26 L 86 18 L 88 18 L 89 17 L 90 17 L 91 16 L 97 16 L 91 16 L 90 15 L 91 14 L 97 14 L 93 14 L 92 13 L 92 12 L 93 11 L 94 12 L 95 12 L 94 12 Z" />
  <path d="M 38 8 L 38 11 L 35 14 L 35 16 L 34 17 L 33 16 L 32 16 L 30 18 L 31 19 L 31 17 L 32 16 L 33 17 L 33 18 L 34 18 L 35 19 L 35 20 L 36 21 L 35 22 L 33 22 L 32 23 L 31 23 L 28 26 L 28 30 L 27 31 L 26 30 L 26 25 L 30 21 L 31 21 L 30 21 L 29 22 L 28 22 L 26 24 L 26 31 L 28 31 L 29 32 L 28 31 L 28 26 L 31 23 L 32 23 L 33 22 L 36 22 L 36 17 L 40 13 L 44 13 L 45 12 L 47 14 L 47 16 L 47 14 L 46 13 L 46 12 L 44 10 L 45 9 L 46 9 L 48 11 L 48 12 L 49 13 L 49 20 L 48 21 L 47 20 L 47 19 L 47 20 L 48 21 L 48 22 L 46 24 L 49 21 L 51 21 L 52 20 L 53 20 L 54 19 L 55 20 L 56 20 L 57 21 L 56 22 L 53 22 L 51 24 L 50 24 L 49 25 L 48 25 L 47 26 L 46 26 L 44 28 L 44 29 L 41 32 L 41 34 L 40 35 L 40 39 L 39 40 L 38 39 L 38 38 L 37 37 L 37 35 L 38 34 L 37 35 L 35 35 L 34 36 L 28 36 L 27 35 L 28 34 L 33 34 L 34 33 L 36 33 L 35 33 L 34 32 L 35 31 L 37 31 L 38 30 L 40 30 L 42 28 L 42 27 L 44 25 L 44 22 L 45 21 L 45 15 L 45 21 L 44 22 L 44 25 L 39 30 L 38 30 L 37 31 L 34 31 L 34 33 L 33 34 L 28 34 L 27 33 L 28 34 L 27 35 L 26 35 L 24 33 L 24 32 L 23 31 L 23 32 L 24 33 L 24 34 L 25 34 L 26 35 L 27 35 L 28 36 L 34 36 L 35 35 L 36 35 L 37 36 L 37 38 L 38 39 L 38 40 L 39 41 L 39 40 L 40 39 L 41 40 L 41 41 L 44 44 L 47 44 L 48 45 L 49 45 L 50 44 L 52 44 L 53 43 L 55 43 L 56 42 L 57 42 L 58 43 L 59 43 L 60 44 L 61 43 L 62 43 L 61 43 L 60 44 L 59 43 L 58 43 L 57 42 L 58 41 L 60 41 L 59 40 L 59 35 L 60 34 L 60 25 L 59 24 L 59 23 L 58 23 L 57 22 L 57 20 L 58 19 L 59 20 L 59 19 L 57 19 L 56 20 L 55 20 L 54 19 L 53 20 L 52 20 L 51 21 L 50 21 L 49 20 L 49 13 L 48 12 L 48 10 L 47 9 L 46 9 L 45 8 Z" />
</svg>